<svg width="32" height="32" viewBox="0 0 32 32" fill="none" xmlns="http://www.w3.org/2000/svg">
<path d="M9.33325 2.6665H22.6666C23.7275 2.6665 24.7449 3.08793 25.495 3.83808C26.2452 4.58822 26.6666 5.60564 26.6666 6.6665V25.3332C26.6666 26.394 26.2452 27.4115 25.495 28.1616C24.7449 28.9117 23.7275 29.3332 22.6666 29.3332H9.33325C8.27239 29.3332 7.25497 28.9117 6.50482 28.1616C5.75468 27.4115 5.33325 26.394 5.33325 25.3332V6.6665C5.33325 5.60564 5.75468 4.58822 6.50482 3.83808C7.25497 3.08793 8.27239 2.6665 9.33325 2.6665ZM9.33325 5.33317C8.97963 5.33317 8.64049 5.47365 8.39044 5.72369C8.14039 5.97374 7.99992 6.31288 7.99992 6.6665V25.3332C7.99992 25.6868 8.14039 26.0259 8.39044 26.276C8.64049 26.526 8.97963 26.6665 9.33325 26.6665H22.6666C23.0202 26.6665 23.3593 26.526 23.6094 26.276C23.8594 26.0259 23.9999 25.6868 23.9999 25.3332V6.6665C23.9999 6.31288 23.8594 5.97374 23.6094 5.72369C23.3593 5.47365 23.0202 5.33317 22.6666 5.33317H9.33325ZM11.9999 6.6665H19.9999C20.3535 6.6665 20.6927 6.80698 20.9427 7.05703C21.1928 7.30708 21.3333 7.64622 21.3333 7.99984C21.3333 8.35346 21.1928 8.6926 20.9427 8.94265C20.6927 9.19269 20.3535 9.33317 19.9999 9.33317H11.9999C11.6463 9.33317 11.3072 9.19269 11.0571 8.94265C10.8071 8.6926 10.6666 8.35346 10.6666 7.99984C10.6666 7.64622 10.8071 7.30708 11.0571 7.05703C11.3072 6.80698 11.6463 6.6665 11.9999 6.6665ZM11.9999 22.6665H14.6666C15.0202 22.6665 15.3593 22.807 15.6094 23.057C15.8594 23.3071 15.9999 23.6462 15.9999 23.9998C15.9999 24.3535 15.8594 24.6926 15.6094 24.9426C15.3593 25.1927 15.0202 25.3332 14.6666 25.3332H11.9999C11.6463 25.3332 11.3072 25.1927 11.0571 24.9426C10.8071 24.6926 10.6666 24.3535 10.6666 23.9998C10.6666 23.6462 10.8071 23.3071 11.0571 23.057C11.3072 22.807 11.6463 22.6665 11.9999 22.6665ZM11.9999 17.3332H19.9999C20.3535 17.3332 20.6927 17.4736 20.9427 17.7237C21.1928 17.9737 21.3333 18.3129 21.3333 18.6665C21.3333 19.0201 21.1928 19.3593 20.9427 19.6093C20.6927 19.8594 20.3535 19.9998 19.9999 19.9998H11.9999C11.6463 19.9998 11.3072 19.8594 11.0571 19.6093C10.8071 19.3593 10.6666 19.0201 10.6666 18.6665C10.6666 18.3129 10.8071 17.9737 11.0571 17.7237C11.3072 17.4736 11.6463 17.3332 11.9999 17.3332ZM11.9999 11.9998H19.9999C20.3535 11.9998 20.6927 12.1403 20.9427 12.3904C21.1928 12.6404 21.3333 12.9795 21.3333 13.3332C21.3333 13.6868 21.1928 14.0259 20.9427 14.276C20.6927 14.526 20.3535 14.6665 19.9999 14.6665H11.9999C11.6463 14.6665 11.3072 14.526 11.0571 14.276C10.8071 14.0259 10.6666 13.6868 10.6666 13.3332C10.6666 12.9795 10.8071 12.6404 11.0571 12.3904C11.3072 12.1403 11.6463 11.9998 11.9999 11.9998Z" fill="#313131"/>
</svg>
