<svg width="31" height="33" viewBox="0 0 31 33" fill="none" xmlns="http://www.w3.org/2000/svg">
<path d="M8.98975 13.2854C8.98975 12.3133 9.3506 11.381 9.99292 10.6936C10.6352 10.0063 11.5064 9.62012 12.4148 9.62012H23.5439C23.9937 9.62012 24.4391 9.71492 24.8546 9.89912C25.2702 10.0833 25.6478 10.3533 25.9658 10.6936C26.2838 11.034 26.5361 11.4381 26.7083 11.8827C26.8804 12.3274 26.969 12.8041 26.969 13.2854V25.1951C26.969 25.6764 26.8804 26.153 26.7083 26.5977C26.5361 27.0424 26.2838 27.4465 25.9658 27.7868C25.6478 28.1272 25.2702 28.3972 24.8546 28.5813C24.4391 28.7655 23.9937 28.8603 23.5439 28.8603H12.4148C11.965 28.8603 11.5196 28.7655 11.1041 28.5813C10.6885 28.3972 10.311 28.1272 9.99292 27.7868C9.67487 27.4465 9.42259 27.0424 9.25046 26.5977C9.07834 26.153 8.98975 25.6764 8.98975 25.1951V13.2854Z" stroke="#313131" stroke-width="2" stroke-linecap="round" stroke-linejoin="round"/>
<path d="M5.15242 23.0016C4.75817 22.7619 4.43024 22.4147 4.20197 21.9955C3.97369 21.5762 3.85322 21.0997 3.85278 20.6144V6.87141C3.85278 5.35967 5.00859 4.1228 6.42124 4.1228H19.2635C20.2267 4.1228 20.7507 4.65191 21.1899 5.4971" stroke="#313131" stroke-width="2" stroke-linecap="round" stroke-linejoin="round"/>
</svg>
